<svg xmlns="http://www.w3.org/2000/svg" viewBox="0 0 1200 700">
<rect width="1200" height="700" fill="#edf4fb"/>
<rect x="70" y="180" width="1060" height="220" rx="24" fill="#1d4d83"/>
<rect x="120" y="230" width="190" height="120" rx="10" fill="#88b7ff"/>
<rect x="340" y="230" width="190" height="120" rx="10" fill="#d9e8ff"/>
<rect x="560" y="230" width="190" height="120" rx="10" fill="#88b7ff"/>
<rect x="780" y="230" width="190" height="120" rx="10" fill="#d9e8ff"/>
<circle cx="220" cy="420" r="28" fill="#203244"/>
<circle cx="470" cy="420" r="28" fill="#203244"/>
<circle cx="700" cy="420" r="28" fill="#203244"/>
<circle cx="920" cy="420" r="28" fill="#203244"/>
<path d="M80 520 H1120" stroke="#5f7892" stroke-width="10" stroke-linecap="round"/>
<path d="M100 560 H1100" stroke="#88a4bf" stroke-width="14" stroke-linecap="round"/>
<path d="M160 520 L210 620" stroke="#6f88a3" stroke-width="8"/>
<path d="M320 520 L370 620" stroke="#6f88a3" stroke-width="8"/>
<path d="M480 520 L530 620" stroke="#6f88a3" stroke-width="8"/>
<path d="M640 520 L690 620" stroke="#6f88a3" stroke-width="8"/>
<path d="M800 520 L850 620" stroke="#6f88a3" stroke-width="8"/>
<path d="M960 520 L1010 620" stroke="#6f88a3" stroke-width="8"/>
</svg>